# xmcd CD database file
#
# Track frame offsets:
#	182
#	18227
#	38720
#	55612
#	76580
#	94675
#	109940
#	129457
#	148022
#	167045
#	182110
#	203715
#
# Disc length: 3061 seconds
#
# Revision: 6
# Processed by: cddbd v1.5.2PL0 Copyright (c) Steve Scherf et al.
# Submitted via: CDex 1.70beta3
#
DISCID=930bf30c
DTITLE=COMPLEX - COMPLEX
DYEAR=1989
DGENRE=Rock
TTITLE0=PRETTY DOLL
TTITLE1=CRASH COMPLEXION
TTITLE2=恋をとめないで
TTITLE3=Can't Stop The Silence
TTITLE4=2人のAnother Twilight
TTITLE5=IMAGINE HEROES
TTITLE6=CLOCKWORK RUNNERS（時計じかけの走者達）
TTITLE7=BE MY BABY
TTITLE8=路地裏のVENUS
TTITLE9=RAMBLING MAN
TTITLE10=そんな君はほしくない
TTITLE11=CRY FOR LOVE
EXTD=YEAR: 1989
EXTT0=
EXTT1=
EXTT2=
EXTT3=
EXTT4=
EXTT5=
EXTT6=
EXTT7=
EXTT8=
EXTT9=
EXTT10=
EXTT11=
PLAYORDER=
